<svg viewBox="0 -60 512 512" xmlns="http://www.w3.org/2000/svg"><path fill="#fff" d="m430.8125 115.898438c11.832031 15.761718 23.679688 36.4375 28.234375 60h52.953125v40h-52.953125c-4.269531 22.097656-14.953125 41.652343-26.027344 57h78.980469v40h-79.707031c14.574219 19.929687 28.707031 47.195312 28.707031 78h-40c0-24.847657-15.179688-48.078126-27.910156-63.195313-3.742188-4.441406-6.609375-9.46875-8.625-14.804687h-62.761719c2.3125-12.285157 4.484375-25.699219 6.296875-40h56.84375c1.992188-4.964844 4.734375-9.640626 8.246094-13.804688 9.226562-10.957031 19.738281-26.183594 24.824218-43.195312h-85.265624c.226562-6.574219.226562-33.425782 0-40h85.265624c-5.085937-17.011719-15.597656-32.238282-24.824218-43.195313-4.207032-4.992187-7.3125-10.722656-9.335938-16.804687h-56.140625c-1.882812-14.34375-4.121093-27.757813-6.480469-40h64.558594c1.898438-4.222657 4.363282-8.203126 7.394532-11.804688 12.734374-15.113281 27.914062-38.347656 27.914062-63.195312h40c0 29.289062-12.777344 55.375-26.558594 75h77.558594v40zm-166.679688-101.667969c1.179688 3.335937 28.867188 82.773437 28.867188 181.667969 0 98.894531-27.6875 178.335937-28.867188 181.667968l-5.03125 14.230469-15.066406-.9375c-2.433594-.152344-60.371094-3.992187-119.132812-28.644531-81.710938-34.273438-124.902344-91.785156-124.902344-166.316406s43.191406-132.042969 124.902344-166.316407c58.761718-24.652343 116.695312-28.492187 119.132812-28.644531l15.066406-.9375zm-11.132812 181.667969c0-67.703126-14.332031-126.75-21.949219-153.347657-19.855469 2.675781-55.984375 9.226563-91.519531 24.269531-66.042969 27.960938-99.53125 71.386719-99.53125 129.078126 0 57.945312 33.769531 101.492187 100.375 129.433593 35.414062 14.855469 71.023438 21.300781 90.667969 23.9375 7.617187-26.585937 21.957031-85.652343 21.957031-153.371093zm0 0"/></svg>